<?xml version="1.0" standalone="no"?>
<!DOCTYPE svg PUBLIC "-//W3C//DTD SVG 20010904//EN"
 "http://www.w3.org/TR/2001/REC-SVG-20010904/DTD/svg10.dtd">
<svg version="1.0" xmlns="http://www.w3.org/2000/svg"
 width="440.000000pt" height="440.000000pt" viewBox="0 0 440.000000 440.000000"
 preserveAspectRatio="xMidYMid meet">
<metadata>
Created by potrace 1.14, written by Peter Selinger 2001-2017
</metadata>
<g transform="translate(0.000000,440.000000) scale(0.100000,-0.100000)"
fill="#000000" stroke="none">
<path d="M1520 4270 c-211 -15 -387 -46 -452 -80 -22 -11 -36 -15 -32 -9 3 6
25 20 48 31 34 16 36 18 11 13 -59 -12 -114 -54 -139 -104 -51 -100 -59 -155
-156 -1046 -84 -774 -146 -1325 -160 -1421 -16 -108 -36 -171 -63 -204 -31
-37 -39 -82 -37 -218 1 -59 -3 -152 -8 -207 -6 -55 -10 -181 -11 -280 -1 -169
1 -183 23 -230 95 -204 497 -320 1271 -366 214 -13 757 -7 1010 11 238 16 534
77 697 143 99 40 229 140 259 200 28 54 33 148 19 412 -5 116 -11 272 -13 347
-2 125 -4 139 -25 165 -35 43 -50 84 -66 175 -16 88 -73 577 -142 1213 -122
1129 -127 1163 -160 1256 -62 177 -173 197 -1155 203 -332 2 -656 0 -719 -4z
m1250 -27 c42 -6 37 -8 -75 -26 -102 -16 -179 -19 -505 -20 -212 -1 -369 1
-350 4 27 5 20 7 -30 8 -36 0 -108 7 -160 14 l-95 13 110 8 c61 4 124 9 140
10 50 7 917 -4 965 -11z m-1224 -225 c-9 -29 -22 -118 -31 -198 -8 -80 -18
-163 -21 -185 -4 -22 -6 -47 -6 -57 1 -14 -40 -55 -134 -132 -18 -14 -33 -26
-35 -26 -2 0 -4 18 -4 39 -1 23 -8 48 -18 59 -34 37 -33 100 4 385 12 94 42
169 63 161 8 -3 29 3 48 12 18 10 53 21 78 24 64 8 76 -11 56 -82z m-162 66
c3 -8 2 -12 -4 -9 -6 3 -10 10 -10 16 0 14 7 11 14 -7z m1983 -536 c-3 -7 -5
-2 -5 12 0 14 2 19 5 13 2 -7 2 -19 0 -25z m27 -130 c21 -147 97 -766 151
-1248 48 -423 75 -635 90 -690 20 -76 20 -76 -25 -106 -22 -15 -37 -30 -34
-35 3 -5 -10 -9 -28 -9 l-33 1 45 23 c54 27 53 13 17 266 -25 175 -91 728
-137 1160 -11 107 -27 254 -35 325 -8 72 -19 182 -25 245 -6 63 -12 130 -15
148 -2 17 0 32 4 32 4 0 15 -51 25 -112z m-717 5 c-3 -19 -11 -29 -30 -34 -15
-4 -29 -3 -33 2 -3 5 10 9 28 9 l33 1 -25 21 c-24 21 -24 21 -2 15 12 -3 22
-1 22 4 0 5 2 9 5 9 3 0 4 -12 2 -27z m28 -33 c3 -5 1 -10 -4 -10 -6 0 -11 5
-11 10 0 6 2 10 4 10 3 0 8 -4 11 -10z m50 -10 c-3 -5 -12 -10 -18 -10 -7 0
-6 4 3 10 19 12 23 12 15 0z m-1275 -7 c0 -13 -14 -30 -30 -37 -8 -3 -5 -4 8
-2 l23 4 -5 -136 c-9 -223 -21 -398 -36 -522 -5 -47 -10 -116 -10 -153 0 -38
-4 -98 -10 -135 -5 -37 -12 -143 -15 -237 -7 -203 -6 -195 -17 -195 -5 0 -6
-4 -3 -10 3 -5 0 -10 -7 -11 -10 0 -10 -2 -1 -6 14 -5 7 -54 -10 -64 -5 -4
-25 10 -43 31 -19 21 -46 41 -59 44 -14 4 -25 11 -25 16 0 5 -6 7 -14 4 -17
-7 -82 68 -96 112 -6 19 -10 44 -8 56 3 21 5 20 21 -12 9 -19 31 -49 47 -67
17 -18 35 -43 40 -55 9 -19 10 -15 5 18 -2 22 -14 61 -24 85 -22 48 -65 111
-72 104 -3 -2 -5 5 -6 16 -1 11 3 17 9 13 7 -5 9 8 4 42 -5 35 -4 45 3 34 9
-12 11 -9 11 13 0 17 -4 26 -10 22 -7 -4 -9 2 -6 17 3 12 8 72 11 133 3 60 12
123 20 140 16 33 45 116 45 127 0 4 -6 5 -14 2 -20 -8 -24 36 -9 122 15 93 32
132 80 182 22 23 35 42 29 42 -6 0 -17 9 -24 21 -11 18 -11 24 2 38 9 10 16
21 16 25 0 4 16 27 36 51 20 24 33 48 31 52 -11 17 22 71 45 76 40 7 68 7 68
0z m1051 -36 c8 -14 8 -27 0 -45 -10 -20 -9 -27 1 -33 10 -6 12 -42 10 -149
-2 -77 2 -157 7 -177 5 -21 13 -71 16 -110 3 -40 10 -86 15 -102 8 -29 6 -148
-4 -237 -7 -64 -38 -363 -40 -391 0 -11 -4 -19 -8 -16 -5 2 -8 -19 -8 -46 0
-28 5 -51 10 -51 6 0 10 -4 10 -10 0 -17 -67 -12 -74 6 -4 9 -4 19 -1 22 3 3
5 0 5 -6 0 -7 5 -12 10 -12 6 0 10 20 10 45 0 25 -4 45 -10 45 -5 0 -10 -12
-10 -27 0 -15 -4 -23 -8 -18 -16 18 -35 93 -29 114 3 12 -3 31 -15 46 -10 13
-20 34 -21 45 -1 11 -7 20 -14 20 -13 0 -29 62 -24 93 1 10 -3 25 -10 33 -10
12 -16 12 -43 -5 -63 -37 -205 -42 -274 -9 -46 22 -132 100 -132 120 0 6 -7
19 -15 28 -23 26 -33 175 -13 198 8 9 18 29 22 44 3 15 24 47 46 70 22 24 40
46 40 51 0 4 10 7 22 7 12 0 30 8 41 17 27 25 216 26 243 2 11 -9 33 -19 51
-22 31 -6 32 -5 39 31 3 20 12 60 19 88 7 29 11 63 10 78 -2 14 1 26 6 26 6 0
7 5 3 11 -3 6 0 16 7 21 10 7 11 11 2 14 -14 6 -8 173 6 187 18 18 56 33 74
29 10 -3 22 -14 28 -25z m156 13 c43 0 79 -35 94 -91 40 -158 49 -243 48 -499
-1 -150 4 -284 11 -325 6 -38 11 -124 12 -190 0 -66 4 -133 10 -150 16 -47 -6
-195 -37 -250 -34 -62 -33 -78 4 -70 17 3 32 2 36 -4 10 -17 -22 -43 -44 -36
-15 4 -18 2 -15 -12 4 -16 -1 -18 -43 -16 -40 1 -42 0 -15 -5 l33 -7 -35 -11
c-29 -9 -36 -8 -36 2 0 9 -6 11 -17 7 -16 -6 -16 -5 -4 10 12 15 11 17 -6 17
-20 0 -21 3 -10 335 2 67 -5 158 -14 170 -3 6 -10 43 -13 84 -4 40 -16 123
-26 185 -24 139 -25 169 -11 281 13 110 14 265 2 298 -12 32 -18 258 -7 275 5
8 17 11 30 8 11 -3 35 -6 53 -6z m-1434 -225 c-3 -9 -8 -14 -10 -11 -3 3 -2 9
2 15 9 16 15 13 8 -4z m1974 -308 c4 -6 0 -8 -11 -4 -9 4 -14 3 -11 -2 3 -5 1
-12 -4 -15 -5 -3 -11 5 -13 18 -4 19 -1 22 14 18 10 -2 21 -9 25 -15z m63 -97
c15 -52 12 -108 -9 -168 -16 -47 -17 -58 -5 -92 21 -62 -8 -190 -44 -190 -9 0
-12 6 -8 17 4 9 1 20 -5 24 -8 5 -6 23 10 68 33 95 25 125 -22 84 -20 -17 -20
-17 -12 2 15 40 17 66 7 108 -17 65 -26 185 -13 167 9 -12 11 -10 11 12 0 16
9 33 22 42 21 15 23 14 40 -12 10 -15 23 -43 28 -62z m90 -610 c11 -113 22
-221 24 -240 17 -152 17 -168 7 -174 -6 -4 -11 -2 -11 4 0 6 -6 10 -12 9 -29
-5 -48 14 -48 46 0 42 -9 65 -25 65 -17 0 -25 23 -25 73 0 49 -9 89 -19 83
-10 -7 -4 94 7 107 12 16 58 153 67 200 4 21 9 36 11 35 2 -2 12 -96 24 -208z
m-2164 -167 c-7 -7 -26 7 -26 19 0 6 6 6 15 -2 9 -7 13 -15 11 -17z m-72 -38
c12 -19 40 -61 64 -94 23 -34 38 -61 32 -61 -5 0 -10 4 -10 9 0 4 -10 19 -22
33 -32 34 -98 135 -98 150 0 15 9 5 34 -37z m122 20 c18 -13 18 -14 -4 -8 -12
3 -25 9 -28 14 -8 14 10 11 32 -6z m1280 -32 c6 -32 8 -136 4 -194 -2 -20 -60
-13 -77 10 -11 14 -12 13 -13 -9 -1 -14 -7 -38 -14 -55 l-13 -30 -8 29 c-9 33
2 182 15 205 6 12 10 8 18 -19 l9 -35 11 53 c7 30 10 57 7 62 -5 8 14 16 42
19 7 0 15 -16 19 -36z m-1279 -28 c9 -25 -4 -29 -17 -6 -7 15 -7 21 0 21 6 0
13 -7 17 -15z m2063 -76 c0 -5 -4 -9 -10 -9 -5 0 -10 7 -10 16 0 8 5 12 10 9
6 -3 10 -10 10 -16z m-779 -173 c5 3 4 -7 -2 -23 -6 -15 -9 -30 -7 -33 2 -3
-7 -6 -18 -8 -18 -3 -21 1 -17 22 3 15 9 26 14 26 5 0 9 8 10 18 0 10 3 12 6
4 2 -6 9 -10 14 -6z m325 -163 l-2 -88 -57 -3 c-31 -2 -65 2 -74 8 -14 9 -10
10 22 6 33 -5 36 -4 16 4 -13 6 -30 18 -36 27 -7 10 -19 14 -29 10 -9 -4 -15
-3 -11 2 3 5 -1 12 -7 14 -7 3 -3 6 10 6 13 1 20 5 17 11 -3 5 7 12 22 16 15
4 37 14 48 24 15 13 65 44 81 50 1 0 1 -39 0 -87z m-136 -53 c0 -5 -4 -10 -10
-10 -5 0 -10 5 -10 10 0 6 5 10 10 10 6 0 10 -4 10 -10z m971 -77 c14 -37 2
-147 -22 -202 -11 -24 -22 -41 -26 -38 -3 4 -1 12 4 19 11 15 18 178 8 208 -3
11 -13 20 -21 20 -8 0 -12 5 -9 10 3 6 17 10 31 10 17 0 27 -8 35 -27z m-1086
-83 c-16 -4 -149 -7 -295 -7 -257 1 -260 1 -85 7 274 9 414 9 380 0z m245 -34
c0 -11 -19 -15 -25 -6 -3 5 1 10 9 10 9 0 16 -2 16 -4z m-1855 -106 c3 -5 1
-10 -4 -10 -6 0 -11 5 -11 10 0 6 2 10 4 10 3 0 8 -4 11 -10z m115 -15 c0 -8
-4 -15 -10 -15 -5 0 -10 7 -10 15 0 8 5 15 10 15 6 0 10 -7 10 -15z m-65 -75
c9 -14 -1 -13 -35 5 -17 9 -30 20 -30 26 0 11 55 -15 65 -31z m48 -7 c-7 -2
-19 -2 -25 0 -7 3 -2 5 12 5 14 0 19 -2 13 -5z"/>
<path d="M1170 2250 c0 -5 5 -10 11 -10 5 0 7 5 4 10 -3 6 -8 10 -11 10 -2 0
-4 -4 -4 -10z"/>
<path d="M1310 1956 c0 -4 6 -14 14 -22 8 -7 16 -19 19 -26 2 -7 8 -10 12 -6
4 4 3 14 -4 22 -7 8 -8 16 -4 18 4 3 3 4 -3 2 -6 -1 -17 3 -23 9 -6 6 -11 8
-11 3z"/>
<path d="M2703 2248 c-18 -35 -26 -115 -12 -123 4 -3 6 3 4 15 -2 11 1 22 6
25 5 4 6 13 1 22 -10 16 12 71 32 85 8 5 7 8 -1 8 -7 0 -20 -15 -30 -32z"/>
<path d="M3248 2753 c7 -3 16 -2 19 1 4 3 -2 6 -13 5 -11 0 -14 -3 -6 -6z"/>
<path d="M2460 1779 c0 -5 5 -7 10 -4 6 3 10 8 10 11 0 2 -4 4 -10 4 -5 0 -10
-5 -10 -11z"/>
<path d="M1188 4243 c7 -3 16 -2 19 1 4 3 -2 6 -13 5 -11 0 -14 -3 -6 -6z"/>
<path d="M1138 4233 c7 -3 16 -2 19 1 4 3 -2 6 -13 5 -11 0 -14 -3 -6 -6z"/>
</g>
</svg>
